{"title":"Animus (2013) DVDRip","uid":8317178,"size":904106093,"categoryP":"video","categoryS":"movies","magnet":"?xt=urn:btih:c846f1e4b825c7a055acfefd378cd3969232ca71&amp;dn=Animus+%282013%29+DVDRip&amp;tr=udp%3A%2F%2Ftracker.openbittorrent.com%3A80&amp;tr=udp%3A%2F%2Fopen.demonii.com%3A1337&amp;tr=udp%3A%2F%2Ftracker.coppersurfer.tk%3A6969&amp;tr=udp%3A%2F%2Fexodus.desync.com%3A6969","seeders":1,"leechers":0,"uploader":"RadioResearch","files":3,"time":1364613305,"description":"*******************************************************************************\n                             Animus (2013) DVDRip\n*******************************************************************************\n\n-------------------------------------------------------------------------------\n                              General Information\n-------------------------------------------------------------------------------\nType.................: Movie\n\n\n\nVideo Format.........: AVI\nVideo Bitrate........: 1498\nResolution...........: 20 x 414\nColor................: 8 bit\nFPS..................: 23.976\nSource...............: DVD 16x9\nOriginal Format......: NTSC\nGenre................: Horror\nIMDb Rating..........: Not yet rated\nMovie Information....: http://www.imdb.com/title/tt2431576/\n\n-------------------------------------------------------------------------------\n                               Post Information\n-------------------------------------------------------------------------------\nPosted by............: RadioResearch\nPosted on............: 3/30/2013\n\n-------------------------------------------------------------------------------\n                                 Release Notes\n-------------------------------------------------------------------------------\nSEEDBOX SUPPORTED!!\n\nHoping to find proof of the paranormal, five film students set out to document \nthe legendary Copper Queen Hospital. But as the sun goes down, they experience \nsomething far worse than they ever could have imagined and they find themselves \npursued by a blood thirsty maniac.\n\nEnjoy!\n\nRadioResearch\n\nGeneral\nComplete name                            : G:AVIaviANIMUSAnimus (2013) \nDVDRipANIMUS.Title1.avi\nFormat                                   : AVI\nFormat/Info                              : Audio Video Interleave\nFile size                                : 862 MiB\nDuration                                 : 1h 20mn\nOverall bit rate                         : 1 498 Kbps\nMovie name                               : ANIMUS.Title1.DVDRip\nWriting application                      : Lavf53.32.100\nOriginal source form/Name                : ANIMUS\n\nVideo\nID                                       : 0\nFormat                                   : MPEG-4 Visual\nFormat profile                           : Advanced Simple@L5\nFormat settings, BVOP                    : 2\nFormat settings, QPel                    : No\nFormat settings, GMC                     : No warppoints\nFormat settings, Matrix                  : Default (H.263)\nMuxing mode                              : Packed bitstream\nCodec ID                                 : XVID\nCodec ID/Hint                            : XviD\nDuration                                 : 1h 20mn\nBit rate                                 : 1 359 Kbps\nWidth                                    : 720 pixels\nHeight                                   : 414 pixels\nDisplay aspect ratio                     : 1.739\nFrame rate                               : 23.976 fps\nColor space                              : YUV\nChroma subsampling                       : 4:2:0\nBit depth                                : 8 bits\nScan type                                : Progressive\nCompression mode                         : Lossy\nBits/(Pixel*Frame)                       : 0.190\nStream size                              : 782 MiB (91%)\nWriting library                          : XviD 64\n\nAudio\nID                                       : 1\nFormat                                   : AC-3\nFormat/Info                              : Audio Coding 3\nMode extension                           : CM (complete main)\nFormat settings, Endianness              : Big\nCodec ID                                 : 2000\nDuration                                 : 1h 20mn\nBit rate mode                            : Constant\nBit rate                                 : 128 Kbps\nChannel(s)                               : 2 channels\nChannel positions                        : Front: L R\nSampling rate                            : 48.0 KHz\nBit depth                                : 16 bits\nCompression mode                         : Lossy\nStream size                              : 73.7 MiB (9%)\nAlignment                                : Aligned on interleaves\nInterleave, duration                     : 32 ms (0.77 video frame)\n\n\n\n\n-------------------------------------------------------------------------------\nGenerated with Cool NFO Creator - http://fly.to/coolbeans\n-------------------------------------------------------------------------------\n","torrent":{"xt":"urn:btih:c846f1e4b825c7a055acfefd378cd3969232ca71","amp;dn":"Animus+%282013%29+DVDRip","amp;tr":["udp%3A%2F%2Ftracker.openbittorrent.com%3A80","udp%3A%2F%2Fopen.demonii.com%3A1337","udp%3A%2F%2Ftracker.coppersurfer.tk%3A6969","udp%3A%2F%2Fexodus.desync.com%3A6969"],"infoHash":"c846f1e4b825c7a055acfefd378cd3969232ca71","infoHashBuffer":{"type":"Buffer","data":[200,70,241,228,184,37,199,160,85,172,254,253,55,140,211,150,146,50,202,113]},"announce":[],"urlList":[]}}